<svg width="40" height="40" viewBox="0 0 40 40" fill="none" xmlns="http://www.w3.org/2000/svg">
<g clip-path="url(#clip0_241_37693)">
<path d="M14.733 19.3167C18.1997 19.3167 21.0164 16.5 21.0164 13.0333C21.0164 9.56666 18.1997 6.75 14.733 6.75C11.2664 6.75 8.44971 9.56666 8.44971 13.0333C8.44971 16.5 11.2664 19.3167 14.733 19.3167Z" fill="#00E983"/>
<path d="M26.933 29.1333V32C26.933 32.6833 26.383 33.25 25.683 33.25H4.58301C3.89967 33.25 3.33301 32.6833 3.33301 32V29.1333C3.33301 25.1166 6.59967 21.85 10.6163 21.85H19.6497C20.4663 21.85 21.2497 21.9833 21.983 22.25C21.983 22.25 21.983 22.2333 21.9997 22.25C24.8663 23.2166 26.933 25.9333 26.933 29.1333Z" fill="#00E983"/>
<path d="M26.933 29.1333V32C26.933 32.6833 26.383 33.25 25.683 33.25H4.58301C3.89967 33.25 3.33301 32.6833 3.33301 32V29.1333C3.33301 25.1166 6.59967 21.85 10.6163 21.85H19.6497C20.4663 21.85 21.2497 21.9833 21.983 22.25C21.983 22.25 21.983 22.2333 21.9997 22.25C24.8663 23.2166 26.933 25.9333 26.933 29.1333Z" fill="#00E983"/>
<path d="M36.6659 27.7V30.05C36.6659 30.6 36.2159 31.05 35.6659 31.05H29.4326V29.1333C29.4326 27.45 28.9993 25.85 28.2493 24.4667C27.9326 23.9 27.5826 23.3667 27.1826 22.8833C26.8993 22.5667 26.6159 22.25 26.3159 21.9833H30.9493C31.1326 21.9833 31.2993 21.9833 31.4659 22.0167C31.6826 22.0333 31.8993 22.0667 32.1159 22.1167C33.3826 22.3833 34.4826 23.0833 35.2992 24.0167C35.4326 24.1667 35.5659 24.3333 35.6826 24.5167C35.6993 24.5167 35.6993 24.5167 35.6826 24.5333C35.9993 25 36.2493 25.5 36.4159 26.05C36.4659 26.2333 36.5159 26.4167 36.5492 26.6C36.6326 26.95 36.6659 27.3167 36.6659 27.7Z" fill="#00E983"/>
<path d="M27.3002 19.0833C30.0525 19.0833 32.2836 16.8522 32.2836 14.1C32.2836 11.3477 30.0525 9.11664 27.3002 9.11664C24.548 9.11664 22.3169 11.3477 22.3169 14.1C22.3169 16.8522 24.548 19.0833 27.3002 19.0833Z" fill="#00E983"/>
</g>
<defs>
<clipPath id="clip0_241_37693">
<rect width="40" height="40" fill="white"/>
</clipPath>
</defs>
</svg>
